<svg width="16" height="14" viewBox="0 0 16 14" fill="none" xmlns="http://www.w3.org/2000/svg">
<path id="Vector" d="M10.1187 13.9188C8.925 14.2594 7.67812 13.5688 7.3375 12.375L7.15938 11.75C7.04375 11.3438 6.83438 10.9688 6.55 10.6562L4.94688 8.89375C4.66875 8.5875 4.69062 8.1125 4.99687 7.83437C5.30312 7.55625 5.77813 7.57812 6.05625 7.88438L7.65938 9.64688C8.1 10.1313 8.42188 10.7094 8.6 11.3375L8.77812 11.9625C8.89062 12.3594 9.30625 12.5906 9.70625 12.4781C10.1062 12.3656 10.3344 11.95 10.2219 11.55L10.0437 10.925C9.86562 10.3031 9.58437 9.71562 9.2125 9.19063C9.05 8.9625 9.03125 8.6625 9.15938 8.4125C9.2875 8.1625 9.54375 8.00625 9.825 8.00625H14C14.275 8.00625 14.5 7.78125 14.5 7.50625C14.5 7.29375 14.3656 7.10938 14.175 7.0375C13.9438 6.95 13.7688 6.75625 13.7094 6.51562C13.65 6.275 13.7125 6.02187 13.875 5.8375C13.9531 5.75 14 5.63438 14 5.50625C14 5.2625 13.825 5.05937 13.5938 5.01562C13.3375 4.96562 13.1219 4.7875 13.0312 4.54063C12.9406 4.29375 12.9812 4.01875 13.1438 3.8125C13.2094 3.72813 13.25 3.62187 13.25 3.50312C13.25 3.29375 13.1187 3.10938 12.9312 3.0375C12.5719 2.89687 12.3781 2.50937 12.4812 2.1375C12.4937 2.09687 12.5 2.05 12.5 2.00313C12.5 1.72813 12.275 1.50313 12 1.50313H8.95312C8.55937 1.50313 8.17188 1.61875 7.84375 1.8375L5.91563 3.12187C5.57188 3.35312 5.10625 3.25937 4.875 2.9125C4.64375 2.56562 4.7375 2.10312 5.08437 1.87187L7.0125 0.5875C7.5875 0.203125 8.2625 0 8.95312 0H12C13.0844 0 13.9656 0.8625 14 1.9375C14.4563 2.30313 14.75 2.86562 14.75 3.5C14.75 3.64062 14.7344 3.775 14.7094 3.90625C15.1906 4.27187 15.5 4.85 15.5 5.5C15.5 5.70312 15.4688 5.9 15.4125 6.08437C15.775 6.45312 16 6.95312 16 7.50625C16 8.60938 15.1062 9.50625 14 9.50625H11.1156C11.2625 9.83125 11.3875 10.1688 11.4844 10.5125L11.6625 11.1375C12.0031 12.3313 11.3125 13.5781 10.1187 13.9188ZM1 11.0063C0.446875 11.0063 0 10.5594 0 10.0063V3.00625C0 2.45312 0.446875 2.00625 1 2.00625H3C3.55312 2.00625 4 2.45312 4 3.00625V10.0063C4 10.5594 3.55312 11.0063 3 11.0063H1Z" fill="#DFDFDF"/>
</svg>
