<svg width="16" height="14" viewBox="0 0 16 14" fill="none" xmlns="http://www.w3.org/2000/svg">
<path id="Vector" d="M10.1187 0.0869261C8.925 -0.253699 7.67812 0.436926 7.3375 1.63068L7.15938 2.25568C7.04375 2.66193 6.83438 3.03693 6.55 3.34943L4.94688 5.11193C4.66875 5.41818 4.69062 5.89318 4.99687 6.1713C5.30312 6.44943 5.77813 6.42755 6.05625 6.1213L7.65938 4.3588C8.1 3.87443 8.42188 3.2963 8.6 2.66818L8.77812 2.04318C8.89062 1.6463 9.30625 1.41505 9.70625 1.52755C10.1062 1.64005 10.3344 2.05568 10.2219 2.45568L10.0437 3.08068C9.86562 3.70255 9.58437 4.29005 9.2125 4.81505C9.05 5.04318 9.03125 5.34318 9.15938 5.59318C9.2875 5.84318 9.54375 5.99943 9.825 5.99943H14C14.275 5.99943 14.5 6.22443 14.5 6.49943C14.5 6.71193 14.3656 6.8963 14.175 6.96818C13.9438 7.05568 13.7688 7.24943 13.7094 7.49005C13.65 7.73068 13.7125 7.9838 13.875 8.16818C13.9531 8.25568 14 8.3713 14 8.49943C14 8.74318 13.825 8.9463 13.5938 8.99005C13.3375 9.04005 13.1219 9.21818 13.0312 9.46505C12.9406 9.71193 12.9812 9.98693 13.1438 10.1932C13.2094 10.2776 13.25 10.3838 13.25 10.5026C13.25 10.7119 13.1187 10.8963 12.9312 10.9682C12.5719 11.1088 12.3781 11.4963 12.4812 11.8682C12.4937 11.9088 12.5 11.9557 12.5 12.0026C12.5 12.2776 12.275 12.5026 12 12.5026H8.95312C8.55937 12.5026 8.17188 12.3869 7.84375 12.1682L5.91563 10.8838C5.57188 10.6526 5.10625 10.7463 4.875 11.0932C4.64375 11.4401 4.7375 11.9026 5.08437 12.1338L7.0125 13.4182C7.5875 13.8026 8.2625 14.0057 8.95312 14.0057H12C13.0844 14.0057 13.9656 13.1432 14 12.0682C14.4563 11.7026 14.75 11.1401 14.75 10.5057C14.75 10.3651 14.7344 10.2307 14.7094 10.0994C15.1906 9.7338 15.5 9.15568 15.5 8.50568C15.5 8.30255 15.4688 8.10568 15.4125 7.9213C15.775 7.55255 16 7.05255 16 6.49943C16 5.3963 15.1062 4.49943 14 4.49943H11.1156C11.2625 4.17443 11.3875 3.83693 11.4844 3.49318L11.6625 2.86818C12.0031 1.67443 11.3125 0.427551 10.1187 0.0869261ZM1 4.99943C0.446875 4.99943 0 5.4463 0 5.99943V12.9994C0 13.5526 0.446875 13.9994 1 13.9994H3C3.55312 13.9994 4 13.5526 4 12.9994V5.99943C4 5.4463 3.55312 4.99943 3 4.99943H1Z" fill="#DFDFDF"/>
</svg>
