<svg width="13" height="13" viewBox="0 0 13 13" fill="none" xmlns="http://www.w3.org/2000/svg">
<path id="Vector" d="M0.400871 6.60669C-0.173339 6.93423 -0.119983 7.80766 0.492338 8.06156L4.05701 9.5469V12.1697C4.05701 12.6293 4.42796 13 4.88784 13C5.13429 13 5.36804 12.8908 5.52557 12.7004L7.10084 10.8139L10.2488 12.124C10.729 12.3246 11.2855 12.0098 11.3642 11.4969L12.9903 0.934465C13.0386 0.627241 12.9039 0.317478 12.6473 0.142284C12.3907 -0.0329105 12.0553 -0.0481447 11.7834 0.106737L0.400871 6.60669ZM1.7246 7.25414L10.4013 2.30047L4.82178 8.53128L4.85227 8.55667L1.7246 7.25414ZM10.2387 10.8012L6.00577 9.03655L11.4455 2.96062L10.2387 10.8012Z" fill="#46A2D5"/>
</svg>
