<svg width="11" height="9" viewBox="0 0 11 9" fill="none" xmlns="http://www.w3.org/2000/svg">
<path id="Vector" d="M9.86992 2.24405C9.87637 2.34143 9.87637 2.44097 9.87637 2.53835C9.87637 5.53979 7.60762 9 3.46113 9C2.18281 9 0.996875 8.6278 0 7.98076C0.180469 8.0024 0.356641 8.0089 0.543555 8.0089C1.59844 8.0089 2.56738 7.64968 3.34297 7.03943C2.35254 7.01779 1.52109 6.36427 1.23535 5.46405C1.375 5.48569 1.51465 5.49868 1.66074 5.49868C1.8627 5.49868 2.06465 5.47055 2.25371 5.42077C1.22031 5.21087 0.446875 4.2955 0.446875 3.19187V3.16374C0.747656 3.33253 1.0957 3.43857 1.46523 3.45155C0.857226 3.04472 0.459766 2.34792 0.459766 1.56023C0.459766 1.13825 0.571484 0.750902 0.766992 0.413321C1.87773 1.79178 3.54492 2.69199 5.41621 2.78937C5.38184 2.62058 5.36035 2.4453 5.36035 2.27002C5.36035 1.01924 6.36582 0 7.61406 0C8.26289 0 8.84941 0.274826 9.26191 0.716278C9.77109 0.618899 10.2609 0.428468 10.6928 0.168791C10.5252 0.696802 10.1686 1.13825 9.70234 1.41957C10.1557 1.3698 10.5961 1.24429 11 1.06901C10.6928 1.51912 10.3082 1.91945 9.86992 2.24405Z" fill="#DFDFDF"/>
</svg>
