<svg width="11" height="8" viewBox="0 0 11 8" fill="none" xmlns="http://www.w3.org/2000/svg">
<path id="Vector" d="M10.7704 1.25208C10.6435 0.758333 10.271 0.370833 9.79769 0.239583C8.93977 0 5.5 0 5.5 0C5.5 0 2.06023 0 1.20231 0.239583C0.729037 0.370833 0.356463 0.758333 0.229586 1.25208C0 2.14583 0 4.00833 0 4.00833C0 4.00833 0 5.87083 0.229586 6.76458C0.356463 7.25833 0.729037 7.62917 1.20231 7.76042C2.06023 8 5.5 8 5.5 8C5.5 8 8.93977 8 9.79769 7.76042C10.271 7.62917 10.6435 7.25625 10.7704 6.76458C11 5.87083 11 4.00833 11 4.00833C11 4.00833 11 2.14583 10.7704 1.25208ZM4.37624 5.7V2.31667L7.25009 4.00833L4.37624 5.7Z" fill="#DFDFDF"/>
</svg>
